<?xml version="1.0" encoding="UTF-8"?>
<svg xmlns="http://www.w3.org/2000/svg" id="Layer_1" viewBox="0 0 507 679">
  <defs>
    <style>.cls-1{fill:#14143f;}.cls-2,.cls-3{fill:#fff;}.cls-2,.cls-3,.cls-4{stroke:#14143f;stroke-miterlimit:10;}.cls-3,.cls-4{stroke-width:.75px;}.cls-4{fill:#44a0d9;}</style>
  </defs>
  <g>
    <g>
      <path class="cls-1" d="M303.04,285.99h0c-1.87,0-3.39-1.52-3.39-3.39V32.6c0-1.87,1.52-3.39,3.39-3.39h0c1.87,0,3.39,1.52,3.39,3.39v250.01c0,1.87-1.52,3.39-3.39,3.39Z"/>
      <path class="cls-1" d="M303.03,287.02c-2.44,0-4.42-1.98-4.42-4.42V32.6c0-2.44,1.98-4.42,4.42-4.42s4.42,1.98,4.42,4.42v250.01c0,2.43-1.98,4.42-4.42,4.42Zm0-256.78c-1.3,0-2.36,1.06-2.36,2.36v250.01c0,1.3,1.06,2.36,2.36,2.36s2.36-1.06,2.36-2.36V32.6c0-1.3-1.06-2.36-2.36-2.36Z"/>
    </g>
    <g>
      <path class="cls-1" d="M306.03,143.25l46.3,78.65c.59,.96,.29,2.22-.67,2.81h0c-.96,.59-2.22,.29-2.81-.67l-46.3-78.65c-.59-.96-.29-2.22,.67-2.81h0c.96-.59,2.22-.29,2.81,.67Z"/>
      <path class="cls-1" d="M350.6,226.04c-1.04,0-2.04-.52-2.62-1.46l-46.31-78.67c-.42-.68-.55-1.51-.36-2.31,.19-.8,.68-1.48,1.38-1.9,.7-.43,1.52-.56,2.32-.37,.8,.19,1.47,.68,1.9,1.38v.02s46.31,78.65,46.31,78.65c.42,.68,.55,1.51,.36,2.3-.19,.8-.68,1.47-1.38,1.9-.5,.31-1.06,.45-1.6,.45Zm-46.31-82.73c-.18,0-.36,.05-.53,.15-.23,.14-.39,.36-.46,.63-.06,.26-.02,.54,.12,.77l46.31,78.67c.28,.46,.91,.61,1.38,.32,.23-.14,.39-.36,.46-.63,.06-.26,.02-.53-.12-.76l-46.31-78.66c-.19-.31-.52-.48-.86-.48Z"/>
    </g>
  </g>
  <g>
    <g>
      <path class="cls-1" d="M302.97,528.35h0c-1.87,0-3.39-1.52-3.39-3.39v-250.01c0-1.87,1.52-3.39,3.39-3.39h0c1.87,0,3.39,1.52,3.39,3.39v250.01c0,1.87-1.52,3.39-3.39,3.39Z"/>
      <path class="cls-1" d="M302.97,529.38c-2.44,0-4.42-1.98-4.42-4.42v-250.01c0-2.43,1.98-4.42,4.42-4.42s4.42,1.98,4.42,4.42v250.01c0,2.43-1.98,4.42-4.42,4.42Zm0-256.78c-1.3,0-2.36,1.06-2.36,2.36v250.01c0,1.3,1.06,2.36,2.36,2.36s2.36-1.06,2.36-2.36v-250.01c0-1.3-1.06-2.36-2.36-2.36Z"/>
    </g>
    <g>
      <path class="cls-1" d="M305.96,385.61l46.3,78.65c.59,.96,.29,2.22-.67,2.81h0c-.96,.59-2.22,.29-2.81-.67l-46.3-78.65c-.59-.96-.29-2.22,.67-2.81h0c.96-.59,2.22-.29,2.81,.67Z"/>
      <path class="cls-1" d="M350.53,468.4c-1.04,0-2.04-.52-2.62-1.46l-46.31-78.67c-.42-.68-.55-1.51-.36-2.31,.19-.8,.68-1.48,1.38-1.9,.7-.43,1.52-.56,2.32-.37,.8,.19,1.47,.68,1.9,1.38v.02s46.31,78.65,46.31,78.65c.42,.68,.55,1.51,.36,2.3-.19,.8-.68,1.47-1.38,1.9-.5,.31-1.06,.45-1.6,.45Zm-46.31-82.73c-.18,0-.36,.05-.53,.15-.23,.14-.39,.36-.46,.63s-.02,.54,.12,.77l46.31,78.67c.28,.46,.91,.61,1.38,.32,.23-.14,.39-.36,.46-.63,.06-.26,.02-.53-.12-.76l-46.31-78.66c-.19-.31-.52-.48-.86-.48Z"/>
    </g>
  </g>
  <polygon id="Hylde8" class="cls-2" points="195.99 620.46 352.35 530.5 304.81 502.75 303.23 502.09 301.94 502.02 300.54 502.06 298.91 502.69 146.01 591.6 195.99 620.46"/>
  <g>
    <polygon class="cls-4" points="234.72 567.37 182.8 534.89 153.99 551.53 153.9 552.23 153.9 584.95 205.26 614.29 205.26 614.29 205.82 614.62 206.39 614.29 206.39 614.29 234.44 598.1 234.72 597.93 234.72 568.02 234.72 567.09 234.72 567.37"/>
    <polyline class="cls-4" points="153.71 551.25 206.06 582.11 206.06 614.36"/>
    <line class="cls-4" x1="235.04" y1="567.15" x2="206.06" y2="582.11"/>
  </g>
  <rect class="cls-1" x="214.34" y="583.83" width="14.61" height="4.67" rx="2.34" ry="2.34" transform="translate(-246.38 169.43) rotate(-27.6)"/>
  <g>
    <g>
      <polygon class="cls-3" points="348.78 500.99 296.86 468.52 268.05 485.15 267.95 485.86 267.96 518.57 319.31 547.91 319.31 547.91 319.88 548.24 320.45 547.91 320.45 547.91 348.5 531.72 348.78 531.55 348.78 501.64 348.78 500.71 348.78 500.99"/>
      <polyline class="cls-3" points="267.76 484.88 320.12 515.73 320.12 547.98"/>
      <line class="cls-3" x1="349.1" y1="500.77" x2="320.12" y2="515.73"/>
    </g>
    <rect class="cls-1" x="328.39" y="517.45" width="14.61" height="4.67" rx="2.34" ry="2.34" transform="translate(-202.64 214.72) rotate(-27.6)"/>
  </g>
  <polygon id="Hylde7" class="cls-2" points="195.99 558.76 352.35 468.79 304.81 441.05 303.23 440.39 301.94 440.32 300.54 440.35 298.91 440.99 146.01 529.9 195.99 558.76"/>
  <g>
    <g>
      <polygon class="cls-3" points="331.95 450.5 280.03 418.03 251.22 434.67 251.13 435.37 251.13 468.09 302.48 497.43 302.48 497.43 303.05 497.76 303.62 497.43 303.62 497.43 331.67 481.23 331.95 481.07 331.95 451.16 331.95 450.22 331.95 450.5"/>
      <polyline class="cls-3" points="250.94 434.39 303.29 465.24 303.29 497.5"/>
      <line class="cls-3" x1="332.27" y1="450.29" x2="303.29" y2="465.24"/>
    </g>
    <rect class="cls-1" x="311.57" y="466.96" width="14.61" height="4.67" rx="2.34" ry="2.34" transform="translate(-181.16 201.18) rotate(-27.6)"/>
  </g>
  <g>
    <g>
      <polygon class="cls-3" points="250.62 496.31 198.7 463.84 169.88 480.48 169.79 481.18 169.8 513.9 221.15 543.24 221.15 543.24 221.72 543.57 222.29 543.24 222.29 543.24 250.33 527.04 250.62 526.88 250.62 496.97 250.62 496.03 250.62 496.31"/>
      <polyline class="cls-3" points="169.6 480.2 221.95 511.05 221.95 543.31"/>
      <line class="cls-3" x1="250.94" y1="496.1" x2="221.95" y2="511.05"/>
    </g>
    <rect class="cls-1" x="230.23" y="512.77" width="14.61" height="4.67" rx="2.34" ry="2.34" transform="translate(-211.65 168.71) rotate(-27.6)"/>
  </g>
  <polygon id="Hylde6" class="cls-2" points="198.79 499.86 355.15 409.9 307.62 382.15 306.04 381.49 304.75 381.42 303.35 381.46 301.72 382.09 148.82 471 198.79 499.86"/>
  <g>
    <polygon class="cls-4" points="292.69 413.11 240.77 380.64 211.95 397.27 211.86 397.98 211.87 430.69 263.22 460.03 263.22 460.03 263.79 460.36 264.36 460.03 264.36 460.03 292.4 443.84 292.69 443.67 292.69 413.76 292.69 412.83 292.69 413.11"/>
    <polyline class="cls-4" points="211.67 397 264.02 427.85 264.02 460.1"/>
    <line class="cls-4" x1="293.01" y1="412.89" x2="264.02" y2="427.85"/>
  </g>
  <rect class="cls-1" x="272.3" y="429.57" width="14.61" height="4.67" rx="2.34" ry="2.34" transform="translate(-168.3 178.73) rotate(-27.6)"/>
  <polygon id="Hylde5" class="cls-2" points="197.86 440.02 354.22 350.06 306.68 322.32 305.1 321.66 303.81 321.58 302.41 321.62 300.78 322.26 147.88 411.17 197.86 440.02"/>
  <g>
    <g>
      <polygon class="cls-3" points="228.18 393.48 176.26 361 147.44 377.64 147.35 378.34 147.36 411.06 198.71 440.4 198.71 440.4 199.28 440.73 199.85 440.4 199.85 440.4 227.9 424.21 228.18 424.04 228.18 394.13 228.18 393.2 228.18 393.48"/>
      <polyline class="cls-3" points="147.16 377.36 199.52 408.22 199.52 440.47"/>
      <line class="cls-3" x1="228.5" y1="393.26" x2="199.52" y2="408.22"/>
    </g>
    <rect class="cls-1" x="207.79" y="409.94" width="14.61" height="4.67" rx="2.34" ry="2.34" transform="translate(-166.55 146.6) rotate(-27.6)"/>
  </g>
  <polygon id="Hylde4" class="cls-2" points="195.05 377.39 351.41 287.43 303.88 259.68 302.3 259.02 301.01 258.95 299.61 258.98 297.98 259.62 145.08 348.53 195.05 377.39"/>
  <g>
    <polygon class="cls-3" points="348.78 256.98 296.86 224.51 268.05 241.15 267.95 241.85 267.96 274.57 319.31 303.9 319.31 303.9 319.88 304.23 320.45 303.9 320.45 303.9 348.5 287.71 348.78 287.55 348.78 257.64 348.78 256.7 348.78 256.98"/>
    <polyline class="cls-3" points="267.76 240.87 320.12 271.72 320.12 303.98"/>
    <line class="cls-3" x1="349.1" y1="256.76" x2="320.12" y2="271.72"/>
  </g>
  <g>
    <polygon class="cls-3" points="307.65 280.35 255.73 247.88 226.91 264.52 226.82 265.22 226.82 297.94 278.18 327.28 278.18 327.28 278.75 327.61 279.31 327.28 279.31 327.28 307.36 311.08 307.65 310.92 307.65 281.01 307.65 280.07 307.65 280.35"/>
    <polyline class="cls-3" points="226.63 264.24 278.98 295.09 278.98 327.35"/>
    <line class="cls-3" x1="307.96" y1="280.14" x2="278.98" y2="295.09"/>
  </g>
  <rect class="cls-1" x="287.26" y="298.68" width="14.61" height="4.67" rx="2.34" ry="2.34" transform="translate(-105.95 170.76) rotate(-27.6)"/>
  <polygon class="cls-4" points="261.84 307.47 209.92 274.99 181.1 291.63 181.01 292.33 181.01 325.05 232.37 354.39 232.37 354.39 232.94 354.72 233.5 354.39 233.5 354.39 261.55 338.2 261.84 338.03 261.84 308.12 261.84 307.18 261.84 307.47"/>
  <polyline class="cls-4" points="180.82 291.35 233.17 322.21 233.17 354.46"/>
  <line class="cls-3" x1="262.15" y1="307.25" x2="233.17" y2="322.21"/>
  <rect class="cls-1" x="241.45" y="325.8" width="14.61" height="4.67" rx="2.34" ry="2.34" transform="translate(-123.73 152.62) rotate(-27.6)"/>
  <polygon id="Hylde3" class="cls-2" points="196.92 316.62 353.28 226.66 305.75 198.91 304.17 198.25 302.88 198.18 301.48 198.22 299.85 198.85 146.95 287.76 196.92 316.62"/>
  <g>
    <polygon class="cls-4" points="308.58 220.52 256.66 188.05 227.85 204.69 227.75 205.39 227.76 238.11 279.11 267.44 279.11 267.44 279.68 267.77 280.25 267.44 280.25 267.44 308.3 251.25 308.58 251.09 308.58 221.18 308.58 220.24 308.58 220.52"/>
    <polyline class="cls-4" points="227.56 204.41 279.92 235.26 279.92 267.51"/>
    <line class="cls-4" x1="308.9" y1="220.3" x2="279.92" y2="235.26"/>
  </g>
  <rect class="cls-1" x="288.19" y="236.98" width="14.61" height="4.67" rx="2.34" ry="2.34" transform="translate(-77.25 164.17) rotate(-27.6)"/>
  <polygon id="Hylde2" class="cls-2" points="197.86 256.79 354.22 166.82 306.68 139.08 305.1 138.42 303.81 138.34 302.41 138.38 300.78 139.02 147.88 227.93 197.86 256.79"/>
  <polygon id="Hylde1" class="cls-2" points="195.99 196.95 352.35 106.99 304.81 79.25 303.23 78.59 301.94 78.51 300.54 78.55 298.91 79.18 146.01 168.1 195.99 196.95"/>
  <g>
    <polygon class="cls-4" points="338.5 85.9 286.58 53.42 257.76 70.06 257.67 70.76 257.68 103.48 309.03 132.82 309.03 132.82 309.6 133.15 310.17 132.82 310.17 132.82 338.21 116.63 338.5 116.46 338.5 86.55 338.5 85.62 338.5 85.9"/>
    <polyline class="cls-4" points="257.48 69.78 309.83 100.64 309.83 132.89"/>
    <line class="cls-4" x1="338.82" y1="85.68" x2="309.83" y2="100.64"/>
  </g>
  <rect class="cls-1" x="318.11" y="102.36" width="14.61" height="4.67" rx="2.34" ry="2.34" transform="translate(-11.47 162.71) rotate(-27.6)"/>
  <g>
    <g>
      <polygon class="cls-3" points="257.16 133.58 205.24 101.1 176.43 117.74 176.34 118.44 176.34 151.16 227.69 180.5 227.69 180.5 228.26 180.83 228.83 180.5 228.83 180.5 256.88 164.31 257.16 164.14 257.16 134.23 257.16 133.29 257.16 133.58"/>
      <polyline class="cls-3" points="176.14 117.46 228.5 148.32 228.5 180.57"/>
      <line class="cls-3" x1="257.48" y1="133.36" x2="228.5" y2="148.32"/>
    </g>
    <rect class="cls-1" x="236.77" y="150.04" width="14.61" height="4.67" rx="2.34" ry="2.34" transform="translate(-42.82 130.45) rotate(-27.6)"/>
  </g>
  <g>
    <polygon class="cls-1" points="144.67 588.58 145.75 597.23 196.33 626.34 352.33 536.27 352.8 536 353.46 527.53 195.92 618.17 144.67 588.58"/>
    <polygon class="cls-1" points="144.67 528.87 145.75 537.52 196.33 566.63 352.33 476.56 352.8 476.29 353.46 467.83 195.92 558.47 144.67 528.87"/>
    <polygon class="cls-1" points="197.17 498.76 145.92 469.17 146.99 477.82 197.58 506.93 354.04 416.59 354.7 408.12 197.17 498.76"/>
    <polygon class="cls-1" points="196.33 447.22 352.33 357.15 352.8 356.88 353.46 348.42 195.92 439.06 144.67 409.46 145.75 418.11 196.33 447.22"/>
  </g>
  <g>
    <polygon class="cls-1" points="144.74 346.22 145.81 354.87 196.4 383.98 352.39 293.91 352.86 293.64 353.52 285.18 195.99 375.81 144.74 346.22"/>
    <polygon class="cls-1" points="144.74 286.52 145.81 295.17 196.4 324.28 352.39 234.21 352.86 233.93 353.52 225.47 195.99 316.11 144.74 286.52"/>
    <polygon class="cls-1" points="197.23 256.4 145.98 226.81 147.06 235.46 197.64 264.57 354.11 174.23 354.77 165.77 197.23 256.4"/>
    <polygon class="cls-1" points="196.4 204.87 352.39 114.79 352.86 114.52 353.52 106.06 195.99 196.7 144.74 167.11 145.81 175.76 196.4 204.87"/>
  </g>
  <g>
    <g>
      <g>
        <path class="cls-1" d="M146.74,617.98h0c-1.87,0-3.39-1.52-3.39-3.39v-250.01c0-1.87,1.52-3.39,3.39-3.39h0c1.87,0,3.39,1.52,3.39,3.39v250.01c0,1.87-1.52,3.39-3.39,3.39Z"/>
        <path class="cls-1" d="M146.74,619.01c-2.44,0-4.42-1.98-4.42-4.42v-250.01c0-2.43,1.98-4.42,4.42-4.42s4.42,1.98,4.42,4.42v250.01c0,2.43-1.98,4.42-4.42,4.42Zm0-256.78c-1.3,0-2.36,1.06-2.36,2.36v250.01c0,1.3,1.06,2.36,2.36,2.36s2.36-1.06,2.36-2.36v-250.01c0-1.3-1.06-2.36-2.36-2.36Z"/>
      </g>
      <g>
        <path class="cls-1" d="M196.67,562.31l-47.5,33.27c-.92,.65-2.2,.43-2.85-.49h0c-.65-.92-.43-2.2,.49-2.85l47.5-33.27c.92-.65,2.2-.43,2.85,.49h0c.65,.92,.43,2.2-.49,2.85Z"/>
        <path class="cls-1" d="M147.99,596.98c-.97,0-1.92-.45-2.51-1.3-.98-1.38-.65-3.3,.73-4.28l47.5-33.27c.67-.47,1.49-.65,2.29-.52,.81,.14,1.51,.58,1.99,1.25,.47,.67,.66,1.48,.52,2.29-.14,.81-.59,1.51-1.25,1.99h0s-47.5,33.27-47.5,33.27c-.54,.38-1.15,.56-1.77,.56Zm47.49-37.35c-.21,0-.41,.06-.58,.19l-47.5,33.27c-.22,.15-.36,.39-.41,.65-.05,.27,.01,.54,.17,.76,.16,.22,.39,.37,.65,.41,.26,.04,.53-.02,.76-.17l47.5-33.27c.22-.16,.36-.39,.41-.65,.05-.27-.01-.53-.17-.76-.16-.22-.39-.37-.65-.41-.06-.01-.12-.02-.18-.02Z"/>
      </g>
      <g>
        <path class="cls-1" d="M196.67,441.87l-47.5,33.27c-.92,.65-2.2,.43-2.85-.49h0c-.65-.92-.43-2.2,.49-2.85l47.5-33.27c.92-.65,2.2-.43,2.85,.49h0c.65,.92,.43,2.2-.49,2.85Z"/>
        <path class="cls-1" d="M148,476.55c-.17,0-.35-.02-.53-.05-.81-.14-1.51-.59-1.99-1.25-.98-1.38-.65-3.3,.73-4.28l47.5-33.27c.67-.47,1.49-.65,2.29-.52,.81,.14,1.51,.59,1.99,1.25,.47,.67,.66,1.48,.52,2.29-.14,.81-.59,1.51-1.25,1.99h0s-47.5,33.27-47.5,33.27c-.52,.37-1.13,.56-1.76,.56Zm47.49-37.35c-.21,0-.41,.06-.58,.19l-47.5,33.27c-.45,.32-.56,.96-.24,1.41,.16,.22,.39,.37,.65,.41,.26,.04,.53-.01,.76-.17l47.5-33.27c.22-.16,.37-.39,.41-.65,.05-.27-.01-.53-.17-.76-.16-.22-.39-.37-.65-.41-.06-.01-.12-.02-.18-.02Z"/>
      </g>
      <g>
        <path class="cls-1" d="M149.73,476.49l46.3,78.65c.59,.96,.29,2.22-.67,2.81h0c-.96,.59-2.22,.29-2.81-.67l-46.3-78.65c-.59-.96-.29-2.22,.67-2.81h0c.96-.59,2.22-.29,2.81,.67Z"/>
        <path class="cls-1" d="M194.3,559.28c-1.03,0-2.04-.52-2.62-1.46l-46.31-78.67c-.88-1.43-.42-3.32,1.02-4.21,1.45-.88,3.34-.43,4.22,1.01v.02s46.31,78.65,46.31,78.65c.88,1.43,.42,3.32-1.02,4.21-.5,.31-1.05,.45-1.6,.45Zm-46.31-82.73c-.18,0-.36,.05-.53,.15-.48,.29-.63,.92-.33,1.39l46.31,78.67c.29,.46,.91,.61,1.38,.32,.23-.14,.39-.36,.46-.63,.06-.26,.02-.53-.12-.76l-46.3-78.66c-.19-.31-.52-.48-.86-.48Z"/>
      </g>
      <g>
        <path class="cls-1" d="M196.33,647.22h0c-1.87,0-3.39-1.52-3.39-3.39v-250.01c0-1.87,1.52-3.39,3.39-3.39h0c1.87,0,3.39,1.52,3.39,3.39v250.01c0,1.87-1.52,3.39-3.39,3.39Z"/>
        <path class="cls-1" d="M196.33,648.25c-2.44,0-4.42-1.98-4.42-4.42v-250.01c0-2.43,1.98-4.42,4.42-4.42s4.42,1.98,4.42,4.42v250.01c0,2.44-1.98,4.42-4.42,4.42Zm0-256.78c-1.3,0-2.36,1.06-2.36,2.36v250.01c0,1.3,1.06,2.36,2.36,2.36s2.36-1.06,2.36-2.36v-250.01c0-1.3-1.06-2.36-2.36-2.36Z"/>
      </g>
    </g>
    <g>
      <g>
        <path class="cls-1" d="M196.74,317.45l-47.5,33.27c-.92,.65-2.2,.43-2.85-.49h0c-.65-.92-.43-2.2,.49-2.85l47.5-33.27c.92-.65,2.2-.43,2.85,.49h0c.65,.92,.43,2.2-.49,2.85Z"/>
        <path class="cls-1" d="M148.06,352.12c-.97,0-1.92-.45-2.51-1.3-.98-1.38-.65-3.3,.73-4.28l47.5-33.27c.67-.47,1.49-.65,2.29-.52,.81,.14,1.51,.59,1.99,1.25,.47,.67,.66,1.48,.52,2.29-.14,.81-.59,1.51-1.25,1.99h0s-47.5,33.27-47.5,33.27c-.54,.38-1.15,.56-1.77,.56Z"/>
      </g>
      <g>
        <path class="cls-1" d="M146.8,373.12h0c-1.87,0-3.39-1.52-3.39-3.39V119.73c0-1.87,1.52-3.39,3.39-3.39h0c1.87,0,3.39,1.52,3.39,3.39v250.01c0,1.87-1.52,3.39-3.39,3.39Z"/>
        <path class="cls-1" d="M146.8,374.16c-2.44,0-4.42-1.98-4.42-4.42V119.73c0-2.44,1.98-4.42,4.42-4.42s4.42,1.98,4.42,4.42v250.01c0,2.43-1.98,4.42-4.42,4.42Zm0-256.78c-1.3,0-2.36,1.06-2.36,2.36v250.01c0,1.3,1.06,2.36,2.36,2.36s2.36-1.06,2.36-2.36V119.73c0-1.3-1.06-2.36-2.36-2.36Z"/>
      </g>
      <g>
        <path class="cls-1" d="M196.74,197.01l-47.5,33.27c-.92,.65-2.2,.43-2.85-.49h0c-.65-.92-.43-2.2,.49-2.85l47.5-33.27c.92-.65,2.2-.43,2.85,.49h0c.65,.92,.43,2.2-.49,2.85Z"/>
        <path class="cls-1" d="M148.06,231.69c-.17,0-.35-.02-.53-.05-.81-.14-1.51-.58-1.99-1.25-.98-1.38-.65-3.3,.73-4.28l47.5-33.27c.67-.47,1.49-.65,2.29-.52,.81,.14,1.51,.59,1.99,1.25,.47,.67,.66,1.48,.52,2.29-.14,.81-.59,1.51-1.25,1.99h0s-47.5,33.27-47.5,33.27c-.52,.37-1.13,.56-1.76,.56Zm47.49-37.35c-.21,0-.41,.06-.58,.19l-47.5,33.27c-.45,.32-.56,.96-.24,1.41,.16,.22,.39,.37,.65,.41,.26,.04,.53-.01,.76-.17l47.5-33.27c.22-.16,.37-.39,.41-.65,.05-.27-.01-.53-.17-.76-.16-.22-.39-.37-.65-.41-.06-.01-.12-.02-.17-.02Z"/>
      </g>
      <g>
        <path class="cls-1" d="M149.8,231.63l46.3,78.65c.59,.96,.29,2.22-.67,2.81h0c-.96,.59-2.22,.29-2.81-.67l-46.3-78.65c-.59-.96-.29-2.22,.67-2.81h0c.96-.59,2.22-.29,2.81,.67Z"/>
        <path class="cls-1" d="M194.36,314.42c-1.03,0-2.04-.52-2.62-1.46l-46.31-78.67c-.88-1.43-.42-3.32,1.02-4.21,1.45-.88,3.34-.43,4.22,1.01v.02s46.31,78.65,46.31,78.65c.88,1.43,.42,3.32-1.02,4.21-.5,.31-1.05,.45-1.6,.45Zm-46.31-82.73c-.18,0-.36,.05-.53,.15-.48,.29-.63,.92-.33,1.39l46.31,78.67c.29,.46,.9,.61,1.38,.32,.23-.14,.39-.36,.46-.63,.06-.26,.02-.54-.12-.76l-46.3-78.66c-.19-.31-.52-.48-.86-.48Z"/>
      </g>
      <g>
        <path class="cls-1" d="M196.4,402.36h0c-1.87,0-3.39-1.52-3.39-3.39V148.97c0-1.87,1.52-3.39,3.39-3.39h0c1.87,0,3.39,1.52,3.39,3.39v250.01c0,1.87-1.52,3.39-3.39,3.39Z"/>
        <path class="cls-1" d="M196.4,403.39c-2.43,0-4.42-1.98-4.42-4.42V148.97c0-2.44,1.98-4.42,4.42-4.42s4.42,1.98,4.42,4.42v250.01c0,2.44-1.98,4.42-4.42,4.42Zm0-256.78c-1.3,0-2.36,1.06-2.36,2.36v250.01c0,1.3,1.06,2.36,2.36,2.36s2.36-1.06,2.36-2.36V148.97c0-1.3-1.06-2.36-2.36-2.36Z"/>
      </g>
    </g>
  </g>
  <g>
    <g>
      <path class="cls-1" d="M352.58,314.04h0c-1.87,0-3.39-1.52-3.39-3.39V60.64c0-1.87,1.52-3.39,3.39-3.39h0c1.87,0,3.39,1.52,3.39,3.39v250.01c0,1.87-1.52,3.39-3.39,3.39Z"/>
      <path class="cls-1" d="M352.58,315.07c-2.44,0-4.42-1.98-4.42-4.42V60.64c0-2.44,1.98-4.42,4.42-4.42s4.42,1.98,4.42,4.42v250.01c0,2.43-1.98,4.42-4.42,4.42Zm0-256.78c-1.3,0-2.36,1.06-2.36,2.36v250.01c0,1.3,1.06,2.36,2.36,2.36s2.36-1.06,2.36-2.36V60.64c0-1.3-1.06-2.36-2.36-2.36Z"/>
    </g>
    <g>
      <path class="cls-1" d="M352.58,561.78h0c-1.87,0-3.39-1.52-3.39-3.39v-250.01c0-1.87,1.52-3.39,3.39-3.39h0c1.87,0,3.39,1.52,3.39,3.39v250.01c0,1.87-1.52,3.39-3.39,3.39Z"/>
      <path class="cls-1" d="M352.58,562.81c-2.44,0-4.42-1.98-4.42-4.42v-250.01c0-2.44,1.98-4.42,4.42-4.42s4.42,1.98,4.42,4.42v250.01c0,2.43-1.98,4.42-4.42,4.42Zm0-256.78c-1.3,0-2.36,1.06-2.36,2.36v250.01c0,1.3,1.06,2.36,2.36,2.36s2.36-1.06,2.36-2.36v-250.01c0-1.3-1.06-2.36-2.36-2.36Z"/>
    </g>
  </g>
  <rect class="cls-1" x="328.39" y="273.44" width="14.61" height="4.67" rx="2.34" ry="2.34" transform="translate(-89.57 186.95) rotate(-27.6)"/>
</svg>